<svg xmlns="http://www.w3.org/2000/svg" viewBox="0 0 520 160" role="img" aria-labelledby="title desc">
  <title id="title">BoozePap</title>
  <desc id="desc">BoozePap BP monogram and wordmark in black and gold</desc>
  <defs>
    <linearGradient id="gold" x1="0" y1="0" x2="1" y2="1">
      <stop offset="0" stop-color="#F6DE83"/><stop offset=".48" stop-color="#C9A227"/><stop offset="1" stop-color="#8B6914"/>
    </linearGradient>
    <linearGradient id="ink" x1="0" y1="0" x2="1" y2="1">
      <stop offset="0" stop-color="#292929"/><stop offset="1" stop-color="#050505"/>
    </linearGradient>
  </defs>
  <g transform="translate(12 8)">
    <path fill="url(#ink)" stroke="url(#gold)" stroke-width="3" d="M18 8h61c30 0 49 14 49 37 0 14-8 25-22 31 20 5 31 18 31 36 0 27-21 42-58 42H18zm34 27v30h23c13 0 20-5 20-15 0-10-7-15-20-15zm0 55v36h28c15 0 23-6 23-18s-8-18-23-18z"/>
    <path fill="url(#gold)" d="M126 8h59c39 0 63 22 63 57s-24 58-63 58h-25v31h-34zm34 28v59h22c20 0 31-10 31-30 0-19-11-29-31-29z"/>
    <path fill="#fff" stroke="#C9A227" stroke-width="2" d="M121 38c17 0 31 2 31 2-1 40-5 72-16 90-4 7-8 11-8 11s-5-4-9-11c-11-18-15-50-16-90 0 0 8-2 18-2z"/>
    <path fill="url(#gold)" d="M109 77c5 2 12 3 20 1 8-2 13-1 17 1-2 21-6 38-12 48-3 5-6 8-6 8s-3-3-6-8c-6-10-10-27-13-50z"/>
    <circle cx="121" cy="67" r="3" fill="#C9A227"/><circle cx="132" cy="58" r="2.5" fill="#C9A227"/><circle cx="128" cy="49" r="2" fill="#C9A227"/>
  </g>
  <text x="274" y="82" fill="#fff" font-family="Arial,Helvetica,sans-serif" font-size="49" font-weight="800" letter-spacing="1">BOOZE</text>
  <text x="274" y="130" fill="url(#gold)" font-family="Arial,Helvetica,sans-serif" font-size="49" font-weight="800" letter-spacing="1">PAP</text>
  <path d="M275 145h218" stroke="url(#gold)" stroke-width="4" stroke-linecap="round"/>
</svg>
